<?xml version="1.0" standalone="no"?>
<!DOCTYPE svg PUBLIC "-//W3C//DTD SVG 20010904//EN"
 "http://www.w3.org/TR/2001/REC-SVG-20010904/DTD/svg10.dtd">
<svg version="1.0" xmlns="http://www.w3.org/2000/svg"
 width="686.000000pt" height="458.000000pt" viewBox="0 0 686.000000 458.000000"
 preserveAspectRatio="xMidYMid meet">
<metadata>
Created by potrace 1.16, written by Peter Selinger 2001-2019
</metadata>
<g transform="translate(0.000000,458.000000) scale(0.100000,-0.100000)"
fill="#000000" stroke="none">
<path d="M1997 4185 c-109 -18 -282 -75 -367 -122 -603 -329 -753 -1132 -365
-1950 32 -67 61 -121 65 -118 4 2 7 -1 7 -8 0 -17 53 -107 63 -107 5 0 10 5
12 11 3 8 33 11 92 10 64 -2 91 1 98 11 7 10 12 8 25 -9 19 -28 37 -29 63 -3
26 26 50 26 57 0 4 -16 11 -19 27 -14 19 6 19 5 7 -10 -12 -14 -12 -16 3 -10
12 5 15 2 10 -9 -3 -9 -12 -13 -21 -10 -11 5 -14 3 -9 -6 5 -7 15 -10 23 -7
11 5 13 2 9 -9 -3 -10 -2 -13 5 -10 6 4 8 13 5 21 -3 8 -1 14 4 14 9 0 14 -13
12 -31 -1 -3 5 -6 12 -6 7 0 -21 50 -62 111 -88 132 -197 351 -247 495 -20 58
-48 161 -62 230 -24 111 -27 148 -27 316 -1 148 4 209 18 275 85 392 311 669
651 801 160 63 374 90 549 70 54 -6 101 -10 103 -7 5 5 -136 43 -252 68 -122
26 -387 33 -508 13z"/>
<path d="M2499 3895 c-3 -2 -27 -6 -54 -9 -71 -7 -157 -35 -149 -48 4 -6 -1
-8 -14 -4 -13 4 -26 0 -38 -11 -10 -10 -19 -17 -21 -15 -8 6 -20 0 -46 -23
-15 -14 -27 -23 -27 -19 0 3 -7 1 -15 -6 -9 -7 -14 -19 -11 -26 3 -8 0 -11 -9
-8 -8 3 -30 -9 -49 -28 -28 -27 -33 -37 -23 -47 9 -10 8 -11 -6 -5 -11 4 -25
0 -37 -11 -35 -31 -22 -34 40 -9 231 94 554 120 744 60 44 -14 84 -22 90 -19
6 3 8 3 4 -2 -4 -4 9 -17 30 -27 20 -11 60 -38 88 -59 l52 -40 213 1 212 1
-28 25 c-31 26 -41 29 -50 14 -3 -5 -11 -10 -18 -10 -6 0 -3 6 7 13 17 13 16
16 -25 43 -70 47 -73 49 -64 33 5 -8 5 -11 0 -7 -4 4 -15 2 -24 -5 -14 -11
-14 -10 -2 6 13 16 13 20 0 28 -32 22 -69 39 -69 33 0 -4 -8 0 -17 8 -30 26
-126 69 -140 64 -9 -4 -11 -1 -7 6 5 8 2 9 -10 5 -9 -4 -15 -3 -12 1 5 8 -87
42 -124 47 -8 1 -26 7 -40 12 -38 16 -157 36 -169 29 -5 -4 -12 -2 -16 4 -6
10 -157 15 -166 5z"/>
<path d="M3667 3426 c-45 -17 -74 -41 -93 -78 -42 -80 18 -153 158 -193 31 -9
71 -26 90 -38 27 -19 34 -30 36 -65 2 -23 4 -42 5 -42 1 0 17 -4 35 -10 29 -8
32 -7 21 6 -10 12 -9 13 5 8 19 -7 21 -25 4 -44 -7 -8 2 -2 20 14 26 24 32 37
32 69 0 60 -52 106 -158 142 -105 34 -134 58 -134 108 0 43 11 60 51 77 45 18
97 -10 113 -61 l11 -39 60 0 59 0 -7 28 c-12 47 -44 89 -83 108 -48 24 -173
29 -225 10z"/>
<path d="M2833 3378 c-6 -18 -126 -345 -267 -726 -141 -381 -256 -695 -256
-698 0 -2 5 -4 10 -4 6 0 10 12 11 28 0 24 1 25 9 7 5 -11 9 -14 9 -7 1 6 8
12 16 12 15 0 19 11 16 40 -2 13 0 13 8 1 5 -8 7 -19 5 -25 -3 -8 24 -10 86
-8 49 2 90 8 90 13 0 5 7 9 15 9 8 0 15 -7 15 -15 0 -9 10 -15 26 -15 19 0 25
4 20 15 -3 9 0 15 8 15 15 0 16 -16 2 -38 -4 -7 -5 -16 -2 -19 3 -3 11 6 17
20 13 30 39 44 39 22 0 -8 3 -15 8 -15 4 0 77 194 162 431 85 236 157 432 160
434 4 2 78 -197 165 -443 86 -246 162 -451 167 -457 6 -6 7 1 2 20 -7 27 -6
29 9 16 12 -9 17 -10 17 -2 0 7 4 10 9 6 5 -3 12 -1 16 5 3 5 11 10 16 10 6 0
7 -4 4 -10 -3 -5 4 -10 15 -10 16 0 20 5 16 15 -4 10 1 15 15 15 15 0 19 -5
16 -15 -4 -8 -2 -17 3 -20 4 -3 10 -1 12 4 1 5 42 11 89 12 70 3 85 1 81 -10
-4 -11 -1 -11 17 -2 24 13 41 7 41 -15 0 -8 4 -14 10 -14 9 0 5 21 -9 45 -3 6
-6 15 -7 20 -1 6 -20 60 -42 120 -22 61 -86 236 -142 390 -91 249 -250 684
-299 820 l-19 50 -199 3 -200 2 -10 -32z"/>
<path d="M4550 2673 c0 -653 4 -794 22 -698 3 18 12 20 118 23 63 2 119 7 124
12 5 5 15 3 23 -6 16 -16 43 -19 43 -5 0 5 9 11 20 14 11 3 20 1 20 -5 0 -5 5
-6 11 -2 8 5 10 -6 7 -34 -2 -22 0 -38 4 -36 5 3 8 336 8 740 l0 734 -200 0
-200 0 0 -737z"/>
<path d="M3790 2628 c0 -128 4 -228 8 -223 17 24 59 34 86 20 l26 -14 0 90 0
89 63 0 c60 0 98 -14 120 -44 4 -6 6 -35 5 -63 -1 -29 2 -56 7 -60 4 -5 4 -2
0 6 -6 11 -4 13 8 8 10 -4 17 -1 17 6 0 7 5 4 11 -5 5 -10 14 -18 19 -18 5 0
11 8 13 18 4 13 5 11 6 -5 0 -13 6 -23 13 -23 6 0 9 3 5 6 -3 4 0 13 8 21 22
21 19 90 -5 123 -11 16 -36 35 -55 41 l-34 13 39 34 c36 30 40 38 40 79 0 38
-5 50 -33 78 -45 45 -89 55 -239 55 l-128 0 0 -232z m229 171 c49 -17 66 -71
40 -122 -17 -32 -28 -37 -91 -37 l-58 0 0 85 0 85 39 0 c21 0 52 -5 70 -11z"/>
<path d="M4030 2192 c0 -106 13 -397 18 -384 5 16 78 16 89 0 5 -8 10 21 13
67 l5 80 55 3 c30 2 64 -2 77 -9 26 -14 43 -56 44 -113 0 -23 3 -35 6 -28 3 7
24 12 53 12 29 0 50 -5 53 -12 3 -7 6 7 6 32 1 59 -26 111 -67 132 l-34 16 29
15 c96 50 94 170 -3 221 -33 18 -61 21 -191 24 l-153 3 0 -59z m271 -21 c13
-16 19 -39 19 -71 0 -67 -31 -92 -109 -88 -37 2 -56 7 -55 16 1 6 2 49 3 93
l1 81 61 -4 c49 -4 66 -9 80 -27z"/>
<path d="M1686 553 c-6 -21 -36 -152 -36 -159 0 -2 8 -4 19 -4 14 0 21 10 25
35 6 31 10 35 39 35 45 0 77 25 77 59 0 39 -17 51 -71 51 -37 0 -49 -4 -53
-17z"/>
<path d="M2984 541 c-6 -27 -7 -28 -36 -17 -27 10 -32 8 -54 -17 -25 -30 -31
-66 -14 -97 8 -15 20 -19 57 -17 l47 2 18 75 c21 93 22 100 3 100 -9 0 -18
-12 -21 -29z"/>
<path d="M3456 553 c-6 -21 -36 -152 -36 -159 0 -2 8 -4 19 -4 14 0 21 10 25
35 6 31 10 35 39 35 45 0 77 25 77 59 0 39 -17 51 -71 51 -37 0 -49 -4 -53
-17z"/>
<path d="M1940 510 c-27 -27 -28 -95 -1 -110 49 -26 111 12 111 69 0 55 -70
81 -110 41z"/>
<path d="M2745 505 c-32 -31 -33 -78 -3 -99 53 -37 108 -4 108 64 0 29 -5 42
-19 50 -32 16 -60 12 -86 -15z"/>
<path d="M4710 510 c-27 -27 -28 -95 -1 -110 49 -26 111 12 111 69 0 55 -70
81 -110 41z"/>
<path d="M4855 518 c-10 -33 -25 -121 -21 -126 13 -13 34 10 39 43 6 39 22 65
40 65 6 0 7 -20 3 -55 -5 -45 -3 -55 9 -55 8 0 17 12 21 28 13 60 21 77 39 81
16 3 17 -2 11 -37 -3 -22 -9 -47 -12 -56 -4 -11 0 -16 14 -16 15 0 21 11 31
57 8 41 8 60 0 70 -14 16 -41 17 -56 2 -8 -8 -16 -7 -31 2 -17 10 -23 10 -36
0 -11 -9 -16 -10 -16 -2 0 15 -30 14 -35 -1z"/>
<path d="M5080 510 c-27 -27 -28 -95 -1 -110 49 -26 111 12 111 69 0 55 -70
81 -110 41z"/>
<path d="M5425 505 c-32 -31 -33 -78 -3 -99 53 -37 108 -4 108 64 0 29 -5 42
-19 50 -32 16 -60 12 -86 -15z"/>
</g>
</svg>
